<svg width="23" height="50" viewBox="0 0 23 50" fill="none" xmlns="http://www.w3.org/2000/svg">
<path d="M21.0756 28.3682C21.7444 28.3682 22.2869 27.8258 22.2869 27.1569V1.21134C22.2869 0.54248 21.7444 0 21.0756 0H1.21134C0.54248 0 0 0.54248 0 1.21134V27.1569C0 27.8258 0.54248 28.3682 1.21134 28.3682H9.93221V28.9475H1.21134C0.54248 28.9475 0 29.4899 0 30.1588V36.2153C0 36.8842 0.54248 37.4267 1.21134 37.4267H9.93221V47.5773H8.4792C7.81034 47.5773 7.26786 48.1198 7.26786 48.7887C7.26786 49.4575 7.81034 50 8.4792 50H13.6272C14.2961 50 14.8385 49.4575 14.8385 48.7887C14.8385 48.1198 14.2961 47.5773 13.6272 47.5773H12.3551V37.4267H21.076C21.7448 37.4267 22.2873 36.8842 22.2873 36.2153V30.1588C22.2873 29.4899 21.7448 28.9475 21.076 28.9475H12.3549V28.3682H21.0756ZM19.8642 35.004H2.42269V31.3702H19.8644V35.004H19.8642ZM2.42269 2.42269H19.8644V25.9456H2.42269V2.42269Z" fill="url(#paint0_linear_1626_3)"/>
<defs>
<linearGradient id="paint0_linear_1626_3" x1="0" y1="0" x2="37.1861" y2="16.5756" gradientUnits="userSpaceOnUse">
<stop stop-color="#FB008D"/>
<stop offset="1" stop-color="#00ADEA"/>
</linearGradient>
</defs>
</svg>
