<svg width="50" height="50" viewBox="0 0 50 50" fill="none" xmlns="http://www.w3.org/2000/svg">
<path d="M8.93504 0.185031C9.5845 0.497179 9.99755 1.15397 9.99755 1.87457C9.99755 3.94866 10.7776 5.14282 11.7549 6.59709L11.826 6.70273C12.6572 7.93753 13.7466 9.55616 13.7466 11.8721C13.7466 14.2353 12.554 16.32 10.7377 17.557C11.2156 17.9576 11.6389 18.4517 12.0027 19.0404C13.1918 20.9649 13.7466 23.9054 13.7466 28.1304C13.7466 32.4096 13.1718 37.5483 12.2355 41.6508C11.77 43.6908 11.1933 45.5726 10.5042 46.987C10.1625 47.6883 9.74631 48.3734 9.22816 48.9093C8.71572 49.4389 7.92393 50 6.87332 50C5.8227 50 5.03092 49.4389 4.51847 48.9093C4.00032 48.3734 3.58417 47.6883 3.24241 46.987C2.5533 45.5726 1.97667 43.6908 1.5111 41.6508C0.574784 37.5483 0 32.4096 0 28.1304C0 23.9054 0.554839 20.9649 1.74395 19.0404C2.10768 18.4517 2.53106 17.9576 3.00889 17.557C1.19266 16.32 0 14.2353 0 11.8721C0 10.9518 0.000849783 9.36993 0.95829 7.32741C1.89526 5.3285 3.67575 3.03178 6.952 0.410801C7.51468 -0.039364 8.28557 -0.127118 8.93504 0.185031ZM3.74908 11.869V11.8721C3.74908 13.5976 5.14784 14.9964 6.87332 14.9964C8.59879 14.9964 9.99755 13.5976 9.99755 11.8721C9.99755 10.7748 9.53561 10.0161 8.64323 8.68825L8.61269 8.64278C8.04066 7.79177 7.36502 6.78664 6.88284 5.49256C5.52497 6.87329 4.77508 8.01804 4.35291 8.91864C3.74908 10.2069 3.74908 11.1235 3.74908 11.869ZM4.93337 21.0111C4.31324 22.0146 3.74908 24.0729 3.74908 28.1304C3.74908 32.1334 4.2933 36.9922 5.16618 40.8165C5.60523 42.7403 6.10573 44.3041 6.61273 45.3449C6.70606 45.5363 6.79349 45.6973 6.87332 45.831C6.95315 45.6973 7.04058 45.5363 7.1339 45.3449C7.6409 44.3041 8.14141 42.7403 8.58045 40.8165C9.45333 36.9922 9.99755 32.1334 9.99755 28.1304C9.99755 24.0729 9.43339 22.0146 8.81327 21.0111C8.53108 20.5542 8.25095 20.338 8.00066 20.2166C7.73116 20.0858 7.37489 20.0074 6.87332 20.0074C6.37174 20.0074 6.01548 20.0858 5.74597 20.2166C5.49568 20.338 5.21555 20.5542 4.93337 21.0111Z" fill="url(#paint0_linear_1626_5)"/>
<path d="M19.9951 32.2846C18.6496 32.0589 17.3649 31.654 16.1663 31.0954C16.2188 30.0799 16.246 29.0854 16.246 28.1303C16.246 27.6909 16.2404 27.2598 16.2286 26.8374C17.3561 27.595 18.6283 28.1541 19.9951 28.4643V21.2448C19.9951 19.1742 21.6736 17.4957 23.7441 17.4957H33.7416C33.7416 11.284 28.7061 6.24845 22.4944 6.24845C19.9241 6.24845 17.5551 7.11069 15.661 8.56168C15.1623 7.18097 14.4495 6.12335 13.9536 5.38751L13.853 5.23799C16.2956 3.51284 19.2767 2.49937 22.4944 2.49937C30.7766 2.49937 37.4907 9.21345 37.4907 17.4957H46.2386C48.3093 17.4957 49.9877 19.1742 49.9877 21.2448V43.7393C49.9877 45.8098 48.3093 47.4883 46.2386 47.4883H23.7441C21.6736 47.4883 19.9951 45.8098 19.9951 43.7393V32.2846ZM23.7441 32.4408V43.7393H46.2386V21.2448H37.0183C35.454 27.3233 30.1743 31.9102 23.7441 32.4408ZM33.1018 21.2448H23.7441V28.6742C28.0908 28.1938 31.6909 25.2363 33.1018 21.2448Z" fill="url(#paint1_linear_1626_5)"/>
<defs>
<linearGradient id="paint0_linear_1626_5" x1="16.3826" y1="1.1496" x2="57.1876" y2="37.174" gradientUnits="userSpaceOnUse">
<stop stop-color="#FB008D"/>
<stop offset="1" stop-color="#0C9BE5"/>
</linearGradient>
<linearGradient id="paint1_linear_1626_5" x1="16.3826" y1="1.1496" x2="57.1876" y2="37.174" gradientUnits="userSpaceOnUse">
<stop stop-color="#FB008D"/>
<stop offset="1" stop-color="#0C9BE5"/>
</linearGradient>
</defs>
</svg>
