<svg width="50" height="50" viewBox="0 0 50 50" fill="none" xmlns="http://www.w3.org/2000/svg">
<path d="M49.9966 18.7521C49.9966 14.8691 47.3412 11.6068 43.7471 10.6818V2.08653C43.7471 0.45031 41.9473 -0.547181 40.5598 0.319948L24.4009 10.4194H8.33274C7.18223 10.4194 6.24958 11.352 6.24958 12.5025V16.6689H2.08316C0.932652 16.6689 0 17.6016 0 18.7521C0 19.9026 0.932652 20.8353 2.08316 20.8353H6.24958V25.0017C6.24958 26.1522 7.18223 27.0848 8.33274 27.0848H10.4159V43.7504C10.4159 47.1925 13.2234 50 16.6655 50C20.1075 50 22.9151 47.1925 22.9151 43.7504V27.0848H24.4008L40.5597 37.1842C41.9472 38.0514 43.747 37.0538 43.747 35.4176V26.8224C47.3412 25.8974 49.9966 22.6351 49.9966 18.7521ZM10.416 14.5857H22.9152V22.9184H20.8319H12.4992H10.416V14.5857ZM18.7487 43.7504C18.7487 44.8915 17.8065 45.8336 16.6656 45.8336C15.5245 45.8336 14.5824 44.8914 14.5824 43.7504V27.0848H18.7488V43.7504H18.7487ZM39.5806 31.659L27.0815 23.8471V13.6571L39.5806 5.84516V12.5025V25.0017V31.659ZM43.7471 22.3612V15.143C44.9925 15.8632 45.8302 17.2097 45.8302 18.7521C45.8302 20.2945 44.9925 21.641 43.7471 22.3612Z" fill="url(#paint0_linear_1626_4)"/>
<defs>
<linearGradient id="paint0_linear_1626_4" x1="0.5" y1="4" x2="40" y2="50" gradientUnits="userSpaceOnUse">
<stop stop-color="#FB008D"/>
<stop offset="1" stop-color="#00ADEA"/>
</linearGradient>
</defs>
</svg>
