<svg width="50" height="50" viewBox="0 0 50 50" fill="none" xmlns="http://www.w3.org/2000/svg">
<path d="M25.793 42.231H2.92914V3.39855C2.92914 3.12892 3.14658 2.91573 3.4152 2.91573H34.8043C35.0729 2.91573 35.2904 3.13519 35.2904 3.39855V15.3123H38.2195V3.39855C38.2195 1.5237 36.6846 0 34.8043 0H3.4152C1.52852 0 0 1.5237 0 3.39855V46.6015C0 48.4763 1.53492 50 3.4152 50H26.3814C26.0041 49.2726 25.7866 48.4449 25.7866 47.5734V42.231H25.793ZM19.2313 48.2631C18.144 48.2631 17.2551 47.3853 17.2551 46.3005C17.2551 45.2157 18.1376 44.3379 19.2313 44.3379C20.3185 44.3379 21.2075 45.2157 21.2075 46.3005C21.2011 47.3853 20.3185 48.2631 19.2313 48.2631ZM47.5569 18.228H31.1653C29.8158 18.228 28.7222 19.319 28.7222 20.6546V47.5734C28.7222 48.909 29.8158 50 31.1653 50H47.5569C48.9064 50 50 48.909 50 47.5734V20.6546C50 19.3128 48.9064 18.228 47.5569 18.228ZM39.3643 48.539C38.5521 48.539 37.8997 47.8869 37.8997 47.0843C37.8997 46.2817 38.5585 45.6295 39.3643 45.6295C40.1701 45.6295 40.8289 46.2817 40.8289 47.0843C40.8289 47.8869 40.1701 48.539 39.3643 48.539ZM47.0709 44.1685H31.6513V21.1374H47.0709V44.1685Z" fill="url(#paint0_linear_1626_2)"/>
<defs>
<linearGradient id="paint0_linear_1626_2" x1="0" y1="0" x2="50" y2="50" gradientUnits="userSpaceOnUse">
<stop stop-color="#FB008D"/>
<stop offset="1" stop-color="#00ADEA"/>
</linearGradient>
</defs>
</svg>
