<svg width="21" height="22" viewBox="0 0 21 22" fill="none" xmlns="http://www.w3.org/2000/svg">
<path d="M14.5966 0.78149C14.5968 0.574161 14.6812 0.375389 14.8312 0.228852C14.9812 0.0823155 15.1845 2.24349e-06 15.3966 0H15.3974C16.4499 0.00238955 17.4834 0.274529 18.3948 0.789282C19.3063 1.30404 20.0638 2.04342 20.5918 2.9337C20.6444 3.02267 20.6785 3.1209 20.6923 3.22278C20.706 3.32465 20.6991 3.42818 20.672 3.52745C20.6448 3.62671 20.5979 3.71977 20.5339 3.8013C20.4699 3.88284 20.3902 3.95125 20.2991 4.00262C20.2081 4.054 20.1077 4.08734 20.0035 4.10074C19.8993 4.11413 19.7934 4.10732 19.6919 4.0807C19.5904 4.05407 19.4952 4.00815 19.4119 3.94556C19.3285 3.88297 19.2586 3.80493 19.2061 3.71591C18.8187 3.06292 18.2631 2.52063 17.5945 2.14312C16.9259 1.76562 16.1678 1.56608 15.3958 1.56441C15.1836 1.56421 14.9802 1.48161 14.8304 1.33479C14.6805 1.18796 14.5964 0.988936 14.5966 0.78149ZM20.6959 14.4478C20.245 16.0912 19.3059 17.5671 17.9974 18.6888C16.6889 19.8105 15.0697 20.5277 13.3444 20.7498C11.6191 20.9719 9.86518 20.6889 8.30435 19.9365C6.74351 19.1842 5.44581 17.9963 4.57528 16.523L0.375429 9.41015C0.139106 9.01021 0.0101516 8.55828 0.000575297 8.09648C-0.00900096 7.63467 0.101113 7.17801 0.320661 6.76903C0.540208 6.36004 0.862047 6.01205 1.2562 5.75745C1.65035 5.50285 2.10399 5.34993 2.57486 5.31295L2.23952 4.74499C1.90627 4.18005 1.79018 3.51736 1.91214 2.87618C2.03411 2.23499 2.38612 1.65743 2.90483 1.24744C3.42354 0.837444 4.07487 0.621941 4.74162 0.639715C5.40836 0.657489 6.04672 0.907373 6.54181 1.34439C6.79532 0.939866 7.15201 0.606721 7.5769 0.377636C8.0018 0.148551 8.48029 0.0313948 8.96546 0.0376607C9.45062 0.0439265 9.92579 0.173399 10.3443 0.413377C10.7629 0.653355 11.1105 0.995596 11.353 1.40653L13.0872 4.34371C13.3559 3.96385 13.7184 3.65658 14.1412 3.45048C14.5639 3.24438 15.033 3.14614 15.505 3.1649C15.9769 3.18365 16.4364 3.3188 16.8406 3.55776C17.2448 3.79672 17.5806 4.13175 17.8169 4.53168L19.8167 7.91869C20.3975 8.89608 20.7743 9.9764 20.9252 11.0971C21.0761 12.2179 20.9982 13.3567 20.6959 14.4478ZM18.4312 8.7009L16.4313 5.31389C16.3526 5.18022 16.2478 5.06302 16.1228 4.96901C15.9977 4.87499 15.855 4.806 15.7027 4.76598C15.5503 4.72595 15.3914 4.71568 15.2351 4.73576C15.0787 4.75583 14.9279 4.80585 14.7913 4.88295C14.6547 4.96006 14.535 5.06274 14.439 5.18512C14.343 5.3075 14.2727 5.44718 14.232 5.59618C14.1912 5.74517 14.181 5.90055 14.2017 6.05343C14.2224 6.20631 14.2738 6.35369 14.3529 6.48714L15.3528 8.1807C15.3662 8.2033 15.3783 8.22653 15.3893 8.25033C15.3973 8.26764 15.4038 8.28525 15.4105 8.30287C15.4129 8.30919 15.4158 8.31534 15.418 8.32172C15.4255 8.34331 15.4316 8.36511 15.437 8.387C15.4377 8.38971 15.4387 8.39235 15.4393 8.39507C15.4447 8.41759 15.4487 8.44023 15.4519 8.4629C15.4523 8.46535 15.4529 8.46777 15.4533 8.47022C15.4561 8.49189 15.4577 8.51358 15.4587 8.53527C15.4589 8.53906 15.4595 8.54283 15.4596 8.54663C15.4602 8.56659 15.4596 8.58648 15.4586 8.60635C15.4584 8.61204 15.4586 8.61772 15.4582 8.62342C15.457 8.64208 15.4544 8.66058 15.4517 8.67907C15.4508 8.68591 15.4504 8.69277 15.4493 8.6996C15.4455 8.72179 15.4404 8.74373 15.4348 8.76552C15.434 8.76842 15.4336 8.77138 15.4328 8.77428C15.432 8.77725 15.4308 8.78006 15.4299 8.78302C15.4237 8.80462 15.4169 8.82604 15.4088 8.84706C15.4066 8.85288 15.4037 8.85837 15.4014 8.86412C15.3939 8.88212 15.3864 8.90007 15.3776 8.91752C15.3755 8.92172 15.3729 8.92564 15.3707 8.92979C15.3609 8.94843 15.3508 8.96688 15.3394 8.98476C15.3381 8.98683 15.3366 8.98873 15.3352 8.99078C15.3226 9.01028 15.3093 9.02939 15.2948 9.04783L15.2931 9.04987C15.2778 9.06925 15.2615 9.08799 15.2443 9.10609L15.2427 9.10764C15.2255 9.1255 15.2075 9.14275 15.1884 9.15914C15.1853 9.16182 15.1818 9.16413 15.1786 9.16675C15.162 9.1806 15.1451 9.19422 15.127 9.20685C15.1055 9.22206 15.0831 9.2362 15.0601 9.24922C14.3251 9.66411 13.7888 10.3475 13.5691 11.149C13.3494 11.9506 13.4644 12.8046 13.8887 13.5233C13.9948 13.7029 14.0235 13.9164 13.9686 14.1168C13.9137 14.3172 13.7797 14.488 13.596 14.5917C13.4122 14.6955 13.1939 14.7236 12.989 14.6699C12.784 14.6162 12.6093 14.4851 12.5032 14.3055C11.9362 13.3448 11.7353 12.2189 11.9361 11.1272C12.1369 10.0356 12.7264 9.04866 13.6002 8.34136L12.9674 7.2694L12.9671 7.26897L9.96746 2.18878C9.80834 1.91928 9.54624 1.72263 9.23884 1.64209C8.93143 1.56154 8.60388 1.6037 8.32827 1.7593C8.05265 1.91489 7.85153 2.17116 7.76916 2.47174C7.68678 2.77233 7.7299 3.09259 7.88902 3.36209L10.4888 7.7653C10.5949 7.94496 10.6237 8.15846 10.5687 8.35885C10.5138 8.55923 10.3798 8.73008 10.196 8.83381C10.0123 8.93754 9.79392 8.96565 9.58898 8.91195C9.38405 8.85826 9.20932 8.72716 9.10324 8.5475L6.50333 4.1443L6.50177 4.14153L5.70346 2.78947C5.5442 2.52025 5.28214 2.32388 4.97487 2.2435C4.66759 2.16312 4.34026 2.20531 4.06479 2.36081C3.78932 2.51631 3.58826 2.77239 3.5058 3.07277C3.42334 3.37315 3.46622 3.69325 3.62502 3.96273L5.22467 6.67188L5.22496 6.67238L7.42488 10.3982C7.48209 10.494 7.51771 10.6006 7.52936 10.7109C7.54101 10.8212 7.52841 10.9327 7.49241 11.0378C7.45641 11.143 7.39785 11.2394 7.32064 11.3206C7.24343 11.4019 7.14935 11.466 7.04472 11.5088C7.03608 11.5124 7.02739 11.5154 7.0187 11.5187C6.99663 11.527 6.97438 11.5344 6.95195 11.5407C6.94302 11.5432 6.93418 11.5458 6.92519 11.548C6.89747 11.5548 6.86938 11.5602 6.84107 11.5641C6.83858 11.5644 6.83609 11.5651 6.8336 11.5654C6.80273 11.5691 6.77168 11.571 6.74058 11.5712C6.73804 11.5712 6.73545 11.5717 6.73292 11.5717C6.72764 11.5717 6.72247 11.5708 6.71719 11.5707C6.69293 11.5702 6.66879 11.5687 6.64478 11.5661C6.63619 11.5652 6.62765 11.5643 6.6191 11.5631C6.59034 11.5592 6.56182 11.5537 6.53366 11.5468C6.5317 11.5463 6.5297 11.546 6.52775 11.5455C6.49758 11.5376 6.46791 11.5279 6.43888 11.5166C6.43141 11.5137 6.42424 11.5104 6.41686 11.5074C6.39479 11.4981 6.37318 11.4879 6.35202 11.4768C6.3444 11.4727 6.33684 11.4689 6.32932 11.4646C6.30278 11.4497 6.27713 11.4333 6.25251 11.4155L6.25075 11.4143C6.2254 11.3954 6.20122 11.375 6.17835 11.3533C6.17234 11.3476 6.16658 11.3416 6.16072 11.3357C6.14343 11.3184 6.12691 11.3002 6.11116 11.2812C6.10569 11.2745 6.10013 11.2681 6.09485 11.2612C6.07464 11.2354 6.05608 11.2085 6.03929 11.1804L3.83937 7.45463C3.6801 7.1854 3.41803 6.98902 3.11075 6.90865C2.80347 6.82827 2.47612 6.87048 2.20065 7.026C1.92519 7.18152 1.72414 7.43762 1.64171 7.73801C1.55927 8.03841 1.60219 8.35852 1.76102 8.62799L5.96087 15.7407C6.91586 17.3572 8.48837 18.5366 10.3326 19.0196C12.1768 19.5026 14.1417 19.2495 15.7951 18.3161C17.4485 17.3827 18.6551 15.8454 19.1494 14.0422C19.6438 12.2391 19.3854 10.3178 18.4312 8.7009ZM6.36213 20.5748C5.10219 19.7219 4.05261 18.605 3.28978 17.3054C3.23725 17.2164 3.16732 17.1385 3.08398 17.076C3.00063 17.0134 2.90551 16.9676 2.80404 16.941C2.70257 16.9144 2.59674 16.9076 2.49259 16.921C2.38844 16.9344 2.28802 16.9678 2.19704 17.0191C2.10607 17.0705 2.02633 17.1389 1.96239 17.2204C1.89844 17.3019 1.85153 17.3949 1.82435 17.4941C1.79716 17.5933 1.79023 17.6968 1.80395 17.7986C1.81766 17.9005 1.85175 17.9987 1.90428 18.0876C2.78478 19.5874 3.99623 20.8762 5.45044 21.8604C5.53677 21.919 5.63406 21.9604 5.73674 21.9822C5.83943 22.004 5.9455 22.0058 6.0489 21.9875C6.15231 21.9692 6.25101 21.9312 6.33938 21.8756C6.42775 21.82 6.50405 21.7479 6.56392 21.6635C6.6238 21.5791 6.66608 21.4839 6.68834 21.3835C6.71061 21.2831 6.71242 21.1794 6.69368 21.0783C6.67494 20.9772 6.63601 20.8807 6.57913 20.7943C6.52224 20.7079 6.4485 20.6333 6.36213 20.5748Z" fill="#FB008D"/>
</svg>
