<svg width="73" height="74" viewBox="0 0 73 74" fill="none" xmlns="http://www.w3.org/2000/svg">
<path opacity="0.4" d="M36.5 73.5C56.6582 73.5 73 57.1585 73 37C73 16.8416 56.6582 0.5 36.5 0.5C16.3416 0.5 0 16.8416 0 37C0 57.1585 16.3416 73.5 36.5 73.5Z" fill="white"/>
<path d="M36.5 18.4941C28.9445 18.4941 22.8125 24.6261 22.8125 32.1815C22.8125 39.591 28.616 45.6135 36.3175 45.8325C36.427 45.8325 36.573 45.8325 36.646 45.8325C36.719 45.8325 36.8285 45.8325 36.9015 45.8325C36.938 45.8325 36.9745 45.8325 36.9745 45.8325C44.3475 45.577 50.151 39.591 50.1875 32.1815C50.1875 24.6261 44.0555 18.4941 36.5 18.4941Z" fill="white"/>
<path d="M61.2479 63.8275C54.7509 69.8135 46.0639 73.5 36.5009 73.5C26.9379 73.5 18.2509 69.8135 11.7539 63.8275C12.6299 60.506 15.0024 57.4765 18.4699 55.1405C28.4344 48.4975 44.6404 48.4975 54.5319 55.1405C58.0359 57.4765 60.3719 60.506 61.2479 63.8275Z" fill="white"/>
</svg>
